<svg xmlns="http://www.w3.org/2000/svg" width="1000" height="560" viewBox="0 0 1000 560" role="img" aria-label="Week in code">
  <style>
    text { font-family: -apple-system, BlinkMacSystemFont, "Segoe UI", Inter, sans-serif; }
    .title { fill: #f4f4f5; font-size: 34px; font-weight: 800; letter-spacing: -0.02em; }
    .sub { fill: #9a9aa5; font-size: 15px; }
    .big { fill: #f4f4f5; font-size: 40px; font-weight: 800; letter-spacing: -0.02em; }
    .small { fill: #9a9aa5; font-size: 13px; }
    .label { fill: #6b6b76; font-size: 10px; letter-spacing: 0.14em; font-weight: 700; }
    .chip { fill: #f4f4f5; font-size: 13px; font-weight: 600; }
    .chipCount { fill: #6b6b76; font-size: 12px; font-weight: 700; }
    .fightTitle { fill: #f4f4f5; font-size: 19px; font-weight: 700; }
    .fightScore { fill: #f97316; font-size: 30px; font-weight: 800; }
    .foot { fill: #6b6b76; font-size: 12px; }
    .rise { animation: rise 620ms cubic-bezier(.2,.8,.2,1) both; }
    @keyframes rise { from { opacity: 0; transform: translateY(8px); } to { opacity: 1; transform: none; } }
    @media (prefers-reduced-motion: reduce) { .rise { animation: none; } }
  </style>
  <defs>
    <clipPath id="card"><rect width="1000" height="560" rx="24" /></clipPath>
  </defs>
  <rect width="1000" height="560" rx="24" fill="#0b0b0f" stroke="#26262e" />
  <!-- Clipped to the card, or its square corners overhang the rounded ones. -->
  <rect x="0" y="0" width="1000" height="4" fill="#f97316" clip-path="url(#card)" />

  <circle cx="60" cy="62" r="18" fill="#f97316" opacity="0.16" />
  <text x="60" y="71" class="title" fill="#f97316" text-anchor="middle" font-size="24">↻</text>
  <text x="92" y="60" class="title">My week in code</text>
  <text x="92" y="84" class="sub">8 Aug – 15 Aug</text>

  
    <g class="rise" style="animation-delay:0s">
      <rect x="40" y="132" width="226" height="96" rx="16"
            fill="#141419" stroke="#26262e" />
      <text x="62" y="188" class="big">23</text>
      <text x="62" y="211" class="small">problems solved</text>
    </g>
    <g class="rise" style="animation-delay:0.07s">
      <rect x="278" y="132" width="226" height="96" rx="16"
            fill="#141419" stroke="#26262e" />
      <text x="300" y="188" class="big">0</text>
      <text x="300" y="211" class="small">revisions done</text>
    </g>
    <g class="rise" style="animation-delay:0.14s">
      <rect x="516" y="132" width="226" height="96" rx="16"
            fill="#141419" stroke="#26262e" />
      <text x="538" y="188" class="big">20</text>
      <text x="538" y="211" class="small">submissions</text>
    </g>
    <g class="rise" style="animation-delay:0.21000000000000002s">
      <rect x="754" y="132" width="226" height="96" rx="16"
            fill="#141419" stroke="#26262e" />
      <text x="776" y="188" class="big">8</text>
      <text x="776" y="211" class="small">day streak</text>
    </g>
  <text x="40" y="252" class="label">DIFFICULTY MIX</text>
  <rect x="40" y="262" width="360" height="14" rx="7" fill="#34d399" />
    <text x="40" y="296" class="small" fill="#34d399">9 easy</text><rect x="406" y="262" width="400" height="14" rx="7" fill="#fbbf24" />
    <text x="406" y="296" class="small" fill="#fbbf24">10 medium</text><rect x="812" y="262" width="160" height="14" rx="7" fill="#f87171" />
    <text x="812" y="296" class="small" fill="#f87171">4 hard</text>
  <text x="40" y="326" class="label">TOPICS</text>
    <g class="rise">
      <rect x="40" y="336" width="87" height="30" rx="15" fill="#141419" stroke="#26262e" />
      <text x="56" y="356" class="chip">Array</text>
      <text x="109" y="356" class="chipCount" text-anchor="end">8</text>
    </g>
    <g class="rise">
      <rect x="135" y="336" width="201.79999999999998" height="30" rx="15" fill="#141419" stroke="#26262e" />
      <text x="151" y="356" class="chip">Dynamic Programming</text>
      <text x="318.79999999999995" y="356" class="chipCount" text-anchor="end">6</text>
    </g>
    <g class="rise">
      <rect x="344.79999999999995" y="336" width="78.8" height="30" rx="15" fill="#141419" stroke="#26262e" />
      <text x="360.79999999999995" y="356" class="chip">Math</text>
      <text x="405.59999999999997" y="356" class="chipCount" text-anchor="end">6</text>
    </g>
    <g class="rise">
      <rect x="431.59999999999997" y="336" width="95.19999999999999" height="30" rx="15" fill="#141419" stroke="#26262e" />
      <text x="447.59999999999997" y="356" class="chip">String</text>
      <text x="508.79999999999995" y="356" class="chipCount" text-anchor="end">5</text>
    </g>
    <g class="rise">
      <rect x="534.8" y="336" width="103.39999999999999" height="30" rx="15" fill="#141419" stroke="#26262e" />
      <text x="550.8" y="356" class="chip">Minimax</text>
      <text x="620.1999999999999" y="356" class="chipCount" text-anchor="end">5</text>
    </g>
  
    <g class="rise" style="animation-delay:.25s">
      <rect x="40" y="396" width="920" height="86" rx="16" fill="#141419" stroke="#26262e" />
      <text x="62" y="424" class="label">BIGGEST FIGHT</text>
      <text x="62" y="452" class="fightTitle">Peaks in Array II</text>
      <text x="62" y="472" class="small">1 submit · 7 runs</text>
      <text x="938" y="452" class="fightScore" text-anchor="end">33</text>
      <text x="938" y="470" class="small" text-anchor="end">out of 100</text>
    </g>

  <text x="40" y="516" class="foot">21 min at the keyboard · 20 runs · 0 hints · new: dp, math, number theory</text>
  <text x="960" y="516" class="foot" text-anchor="end">Redo · parikshaa.org</text>
</svg>
